<svg xmlns="http://www.w3.org/2000/svg" viewBox="0 0 480 320" width="480" height="320">
  <rect width="480" height="320" fill="#150516"/>
  <!-- header row -->
  <rect x="32" y="32" width="160" height="28" rx="3" fill="#f7f2e8" opacity="0.85"/>
  <!-- CTA + arrows -->
  <rect x="300" y="36" width="80" height="20" rx="10" fill="#cb9cf2"/>
  <circle cx="408" cy="46" r="12" fill="none" stroke="#f7f2e8" stroke-width="1.5" opacity="0.4"/>
  <circle cx="440" cy="46" r="12" fill="none" stroke="#f7f2e8" stroke-width="1.5" opacity="0.4"/>
  <!-- cards -->
  <rect x="32" y="80" width="124" height="160" rx="3" fill="#f7f2e8" opacity="0.06"/>
  <rect x="32" y="80" width="124" height="88" rx="3" fill="#f7f2e8" opacity="0.1"/>
  <rect x="32" y="180" width="80" height="8" rx="2" fill="#cb9cf2" opacity="0.6"/>
  <rect x="32" y="194" width="110" height="10" rx="2" fill="#f7f2e8" opacity="0.5"/>
  <rect x="32" y="210" width="100" height="8" rx="2" fill="#f7f2e8" opacity="0.25"/>

  <rect x="172" y="80" width="124" height="160" rx="3" fill="#f7f2e8" opacity="0.06"/>
  <rect x="172" y="80" width="124" height="88" rx="3" fill="#f7f2e8" opacity="0.1"/>
  <rect x="172" y="180" width="80" height="8" rx="2" fill="#cb9cf2" opacity="0.6"/>
  <rect x="172" y="194" width="110" height="10" rx="2" fill="#f7f2e8" opacity="0.5"/>
  <rect x="172" y="210" width="100" height="8" rx="2" fill="#f7f2e8" opacity="0.25"/>

  <rect x="312" y="80" width="124" height="160" rx="3" fill="#f7f2e8" opacity="0.06"/>
  <rect x="312" y="80" width="124" height="88" rx="3" fill="#f7f2e8" opacity="0.1"/>
  <rect x="312" y="180" width="80" height="8" rx="2" fill="#cb9cf2" opacity="0.6"/>
  <rect x="312" y="194" width="110" height="10" rx="2" fill="#f7f2e8" opacity="0.5"/>
  <rect x="312" y="210" width="100" height="8" rx="2" fill="#f7f2e8" opacity="0.25"/>
</svg>
