<svg xmlns="http://www.w3.org/2000/svg" viewBox="0 0 280 160" fill="none">
  <rect width="280" height="160" fill="#150516"/>
  <!-- left sidebar -->
  <rect x="12" y="12" width="72" height="136" rx="3" fill="#cb9cf220"/>
  <rect x="20" y="24" width="12" height="4" rx="2" fill="#cb9cf2"/>
  <rect x="36" y="24" width="36" height="4" rx="2" fill="#cb9cf240"/>
  <rect x="20" y="36" width="12" height="4" rx="2" fill="#cb9cf240"/>
  <rect x="36" y="36" width="30" height="4" rx="2" fill="#cb9cf215"/>
  <rect x="20" y="48" width="12" height="4" rx="2" fill="#cb9cf240"/>
  <rect x="36" y="48" width="34" height="4" rx="2" fill="#cb9cf215"/>
  <rect x="20" y="60" width="12" height="4" rx="2" fill="#cb9cf240"/>
  <rect x="36" y="60" width="28" height="4" rx="2" fill="#cb9cf215"/>
  <!-- right content -->
  <rect x="96" y="12" width="172" height="136" rx="3" fill="#cb9cf210"/>
  <!-- big number -->
  <rect x="108" y="20" width="28" height="28" rx="2" fill="#cb9cf230"/>
  <!-- tag pill -->
  <rect x="108" y="56" width="44" height="10" rx="5" fill="none" stroke="#cb9cf2" stroke-width="1"/>
  <!-- title -->
  <rect x="108" y="72" width="120" height="8" rx="2" fill="#cb9cf270"/>
  <rect x="108" y="84" width="80" height="8" rx="2" fill="#cb9cf250"/>
  <!-- divider -->
  <line x1="108" y1="100" x2="256" y2="100" stroke="#cb9cf225" stroke-width="1"/>
  <!-- text lines -->
  <rect x="108" y="108" width="148" height="4" rx="2" fill="#ffffff30"/>
  <rect x="108" y="116" width="140" height="4" rx="2" fill="#ffffff20"/>
  <rect x="108" y="124" width="100" height="4" rx="2" fill="#ffffff15"/>
</svg>
