<svg xmlns="http://www.w3.org/2000/svg" viewBox="0 0 480 320" width="480" height="320">
  <rect width="480" height="320" fill="#150516"/>
  <!-- card -->
  <rect x="80" y="64" width="320" height="192" rx="6" fill="#f7f2e8" opacity="0.07"/>
  <rect x="80" y="64" width="320" height="192" rx="6" fill="none" stroke="#f7f2e8" stroke-width="1" opacity="0.15"/>
  <!-- file icon -->
  <rect x="208" y="88" width="64" height="76" rx="4" fill="#f7f2e8" opacity="0.15"/>
  <rect x="208" y="88" width="64" height="76" rx="4" fill="none" stroke="#f7f2e8" stroke-width="1.5" opacity="0.4"/>
  <polygon points="248,88 272,112 248,112" fill="#f7f2e8" opacity="0.15"/>
  <rect x="220" y="124" width="40" height="6" rx="2" fill="#f7f2e8" opacity="0.3"/>
  <rect x="224" y="136" width="32" height="6" rx="2" fill="#cb9cf2" opacity="0.5"/>
  <!-- title -->
  <rect x="136" y="184" width="208" height="14" rx="3" fill="#f7f2e8" opacity="0.7"/>
  <!-- desc -->
  <rect x="160" y="204" width="160" height="8" rx="2" fill="#f7f2e8" opacity="0.3"/>
  <!-- download button -->
  <rect x="180" y="224" width="120" height="28" rx="14" fill="#cb9cf2"/>
  <rect x="200" y="234" width="80" height="8" rx="2" fill="#150516" opacity="0.5"/>
</svg>
