<svg xmlns="http://www.w3.org/2000/svg" viewBox="0 0 480 320" width="480" height="320">
  <rect width="480" height="320" fill="#150516"/>
  <!-- bg overlay hint -->
  <rect x="0" y="0" width="480" height="320" fill="#cb9cf2" opacity="0.15"/>
  <!-- left card sand -->
  <rect x="64" y="40" width="152" height="240" rx="3" fill="#f7f2e8"/>
  <rect x="80" y="56" width="120" height="56" rx="2" fill="#150516" opacity="0.1"/>
  <rect x="80" y="200" width="110" height="10" rx="2" fill="#150516" opacity="0.4"/>
  <rect x="80" y="216" width="90" height="8" rx="2" fill="#150516" opacity="0.25"/>
  <rect x="80" y="230" width="100" height="8" rx="2" fill="#150516" opacity="0.25"/>
  <!-- right card dark -->
  <rect x="232" y="40" width="152" height="240" rx="3" fill="#150516"/>
  <!-- arrow circle -->
  <circle cx="368" cy="64" r="14" fill="#cb9cf2"/>
  <rect x="358" y="60" width="14" height="8" rx="2" fill="#150516" opacity="0.6"/>
  <!-- title -->
  <rect x="248" y="210" width="120" height="22" rx="3" fill="#cb9cf2" opacity="0.85"/>
  <rect x="248" y="238" width="100" height="14" rx="3" fill="#cb9cf2" opacity="0.5"/>
  <rect x="248" y="258" width="80" height="14" rx="3" fill="#cb9cf2" opacity="0.3"/>
</svg>
