<svg xmlns="http://www.w3.org/2000/svg" viewBox="0 0 480 320" width="480" height="320">
  <rect width="480" height="320" fill="#150516"/>
  <!-- title -->
  <rect x="32" y="28" width="160" height="22" rx="3" fill="#f7f2e8" opacity="0.8"/>
  <!-- accordion items -->
  <rect x="32" y="72" width="416" height="1" fill="#f7f2e8" opacity="0.15"/>
  <rect x="32" y="80" width="280" height="14" rx="2" fill="#f7f2e8" opacity="0.6"/>
  <rect x="424" y="78" width="20" height="20" rx="2" fill="#f7f2e8" opacity="0.15"/>
  <rect x="32" y="107" width="416" height="1" fill="#f7f2e8" opacity="0.15"/>

  <!-- open item -->
  <rect x="32" y="115" width="416" height="80" rx="3" fill="#f7f2e8" opacity="0.05"/>
  <rect x="32" y="123" width="280" height="14" rx="2" fill="#cb9cf2" opacity="0.8"/>
  <circle cx="434" cy="130" r="10" fill="#cb9cf2" opacity="0.3"/>
  <rect x="32" y="148" width="380" height="8" rx="2" fill="#f7f2e8" opacity="0.3"/>
  <rect x="32" y="162" width="320" height="8" rx="2" fill="#f7f2e8" opacity="0.2"/>
  <rect x="32" y="176" width="200" height="8" rx="2" fill="#f7f2e8" opacity="0.15"/>

  <rect x="32" y="202" width="416" height="1" fill="#f7f2e8" opacity="0.15"/>
  <rect x="32" y="210" width="240" height="14" rx="2" fill="#f7f2e8" opacity="0.6"/>
  <rect x="424" y="208" width="20" height="20" rx="2" fill="#f7f2e8" opacity="0.15"/>
  <rect x="32" y="237" width="416" height="1" fill="#f7f2e8" opacity="0.15"/>

  <rect x="32" y="244" width="200" height="14" rx="2" fill="#f7f2e8" opacity="0.6"/>
  <rect x="424" y="242" width="20" height="20" rx="2" fill="#f7f2e8" opacity="0.15"/>
  <rect x="32" y="270" width="416" height="1" fill="#f7f2e8" opacity="0.15"/>
</svg>
