<svg xmlns="http://www.w3.org/2000/svg" viewBox="0 0 480 320" width="480" height="320">
  <rect width="480" height="320" fill="#150516"/>
  <!-- heading -->
  <rect x="64" y="48" width="200" height="20" rx="3" fill="#f7f2e8" opacity="0.85"/>
  <!-- paragraph lines -->
  <rect x="64" y="88" width="352" height="10" rx="2" fill="#f7f2e8" opacity="0.45"/>
  <rect x="64" y="104" width="320" height="10" rx="2" fill="#f7f2e8" opacity="0.45"/>
  <rect x="64" y="120" width="340" height="10" rx="2" fill="#f7f2e8" opacity="0.45"/>
  <rect x="64" y="136" width="180" height="10" rx="2" fill="#f7f2e8" opacity="0.45"/>
  <!-- sub-heading -->
  <rect x="64" y="164" width="140" height="16" rx="3" fill="#f7f2e8" opacity="0.7"/>
  <!-- paragraph 2 -->
  <rect x="64" y="196" width="352" height="10" rx="2" fill="#f7f2e8" opacity="0.35"/>
  <rect x="64" y="212" width="300" height="10" rx="2" fill="#f7f2e8" opacity="0.35"/>
  <rect x="64" y="228" width="280" height="10" rx="2" fill="#f7f2e8" opacity="0.35"/>
  <!-- bullet list -->
  <circle cx="76" cy="264" r="4" fill="#cb9cf2" opacity="0.7"/>
  <rect x="92" y="260" width="200" height="8" rx="2" fill="#f7f2e8" opacity="0.35"/>
  <circle cx="76" cy="282" r="4" fill="#cb9cf2" opacity="0.7"/>
  <rect x="92" y="278" width="160" height="8" rx="2" fill="#f7f2e8" opacity="0.35"/>
</svg>
