<svg xmlns="http://www.w3.org/2000/svg" viewBox="0 0 480 320" width="480" height="320">
  <rect width="480" height="320" fill="#150516"/>
  <rect x="8" y="8" width="144" height="92" rx="2" fill="#cb9cf2"/>
  <rect x="168" y="8" width="144" height="92" rx="2" fill="#cb9cf2"/>
  <rect x="328" y="8" width="144" height="92" rx="2" fill="#cb9cf2"/>
  <rect x="8" y="112" width="144" height="92" rx="2" fill="#cb9cf2"/>
  <rect x="168" y="112" width="144" height="92" rx="2" fill="#cb9cf2"/>
  <rect x="328" y="112" width="144" height="92" rx="2" fill="#cb9cf2"/>
  <rect x="18" y="18" width="12" height="12" rx="2" fill="#150516" opacity="0.4"/>
  <rect x="178" y="18" width="12" height="12" rx="2" fill="#150516" opacity="0.4"/>
  <rect x="338" y="18" width="12" height="12" rx="2" fill="#150516" opacity="0.4"/>
  <rect x="18" y="122" width="12" height="12" rx="2" fill="#150516" opacity="0.4"/>
  <rect x="178" y="122" width="12" height="12" rx="2" fill="#150516" opacity="0.4"/>
  <rect x="338" y="122" width="12" height="12" rx="2" fill="#150516" opacity="0.4"/>
  <rect x="18" y="36" width="80" height="6" rx="1" fill="#150516" opacity="0.7"/>
  <rect x="178" y="36" width="80" height="6" rx="1" fill="#150516" opacity="0.7"/>
  <rect x="338" y="36" width="80" height="6" rx="1" fill="#150516" opacity="0.7"/>
  <rect x="18" y="140" width="80" height="6" rx="1" fill="#150516" opacity="0.7"/>
  <rect x="178" y="140" width="80" height="6" rx="1" fill="#150516" opacity="0.7"/>
  <rect x="338" y="140" width="80" height="6" rx="1" fill="#150516" opacity="0.7"/>
  <rect x="18" y="48" width="120" height="4" rx="1" fill="#150516" opacity="0.35"/>
  <rect x="18" y="56" width="100" height="4" rx="1" fill="#150516" opacity="0.35"/>
  <rect x="178" y="48" width="120" height="4" rx="1" fill="#150516" opacity="0.35"/>
  <rect x="178" y="56" width="100" height="4" rx="1" fill="#150516" opacity="0.35"/>
  <rect x="338" y="48" width="120" height="4" rx="1" fill="#150516" opacity="0.35"/>
  <rect x="338" y="56" width="100" height="4" rx="1" fill="#150516" opacity="0.35"/>
  <rect x="18" y="152" width="120" height="4" rx="1" fill="#150516" opacity="0.35"/>
  <rect x="18" y="160" width="100" height="4" rx="1" fill="#150516" opacity="0.35"/>
  <rect x="178" y="152" width="120" height="4" rx="1" fill="#150516" opacity="0.35"/>
  <rect x="178" y="160" width="100" height="4" rx="1" fill="#150516" opacity="0.35"/>
  <rect x="338" y="152" width="120" height="4" rx="1" fill="#150516" opacity="0.35"/>
  <rect x="338" y="160" width="100" height="4" rx="1" fill="#150516" opacity="0.35"/>
</svg>
