<svg xmlns="http://www.w3.org/2000/svg" viewBox="0 0 480 320" width="480" height="320">
  <rect width="480" height="320" fill="#150516"/>
  <!-- section title -->
  <rect x="32" y="24" width="180" height="24" rx="3" fill="#cb9cf2" opacity="0.8"/>
  <!-- item 1 with bg image -->
  <rect x="32" y="64" width="416" height="104" rx="4" fill="#f7f2e8" opacity="0.06"/>
  <rect x="32" y="64" width="416" height="104" rx="4" fill="url(#imggrad1)"/>
  <defs>
    <linearGradient id="imggrad1" x1="0" y1="0" x2="1" y2="0">
      <stop offset="0%" stop-color="#cb9cf2" stop-opacity="0.15"/>
      <stop offset="100%" stop-color="#150516" stop-opacity="0.8"/>
    </linearGradient>
  </defs>
  <rect x="52" y="84" width="140" height="30" rx="3" fill="#f7f2e8" opacity="0.8"/>
  <rect x="316" y="84" width="100" height="8" rx="2" fill="#f7f2e8" opacity="0.5"/>
  <rect x="316" y="98" width="80" height="8" rx="2" fill="#f7f2e8" opacity="0.35"/>
  <rect x="316" y="130" width="88" height="22" rx="11" fill="#cb9cf2"/>
  <!-- item 2 -->
  <rect x="32" y="184" width="416" height="104" rx="4" fill="#f7f2e8" opacity="0.06"/>
  <rect x="52" y="204" width="120" height="30" rx="3" fill="#f7f2e8" opacity="0.8"/>
  <rect x="316" y="204" width="100" height="8" rx="2" fill="#f7f2e8" opacity="0.5"/>
  <rect x="316" y="218" width="80" height="8" rx="2" fill="#f7f2e8" opacity="0.35"/>
  <rect x="316" y="250" width="88" height="22" rx="11" fill="#cb9cf2"/>
</svg>
