<svg xmlns="http://www.w3.org/2000/svg" viewBox="0 0 480 320" width="480" height="320">
  <rect width="480" height="320" fill="#150516"/>
  <!-- tab bar -->
  <rect x="32" y="48" width="416" height="40" rx="4" fill="#f7f2e8" opacity="0.06"/>
  <!-- active tab -->
  <rect x="40" y="52" width="88" height="32" rx="3" fill="#cb9cf2"/>
  <rect x="52" y="62" width="64" height="12" rx="2" fill="#150516" opacity="0.6"/>
  <!-- inactive tabs -->
  <rect x="140" y="56" width="88" height="24" rx="3" fill="none"/>
  <rect x="152" y="64" width="64" height="10" rx="2" fill="#f7f2e8" opacity="0.4"/>
  <rect x="244" y="56" width="88" height="24" rx="3" fill="none"/>
  <rect x="256" y="64" width="64" height="10" rx="2" fill="#f7f2e8" opacity="0.4"/>
  <!-- tab content -->
  <rect x="32" y="104" width="416" height="176" rx="4" fill="#f7f2e8" opacity="0.04"/>
  <rect x="56" y="128" width="200" height="18" rx="3" fill="#f7f2e8" opacity="0.6"/>
  <rect x="56" y="162" width="368" height="9" rx="2" fill="#f7f2e8" opacity="0.3"/>
  <rect x="56" y="177" width="340" height="9" rx="2" fill="#f7f2e8" opacity="0.3"/>
  <rect x="56" y="192" width="300" height="9" rx="2" fill="#f7f2e8" opacity="0.3"/>
  <rect x="56" y="232" width="100" height="28" rx="14" fill="#ffb000"/>
  <rect x="76" y="242" width="60" height="8" rx="2" fill="#150516" opacity="0.5"/>
</svg>
